# xmcd CD database file
#
# Track frame offsets:
#	150
#	27675
#	51927
#	77512
#	109052
#	145900
#	173662
#	202300
#	229558
#	261250
#	289698
#
# Disc length: 4255 seconds
#
# Revision: 0
# Processed by: cddbd v1.5.1PL0 Copyright (c) Steve Scherf et al.
# Submitted via: CDex 1.51
#
DISCID=9e109d0b
DTITLE=The Marty Nau Group (featuring Vince Lardear and Phil Woods) - At the Bouquet Chorale
DYEAR=2005
DGENRE=Jazz
TTITLE0=At the Bouquet Chorale
TTITLE1=Airmail Special
TTITLE2=Rainy Day
TTITLE3=Cadillac Jack
TTITLE4=Door Number Three
TTITLE5=Slash and Burn
TTITLE6=Saucy Susan
TTITLE7=Call All Cars
TTITLE8=Samba Nau
TTITLE9=Delawareness
TTITLE10=The Mooche
EXTD=YEAR: 2005
EXTT0=
EXTT1=
EXTT2=
EXTT3=
EXTT4=
EXTT5=
EXTT6=
EXTT7=
EXTT8=
EXTT9=
EXTT10=
PLAYORDER=
